<svg id="Layer_1" data-name="Layer 1" xmlns="http://www.w3.org/2000/svg" viewBox="0 0 100.28 19.89">
  <title>comingsoon</title>
  <g>
    <path d="M-165.75-42.78h3.35l-.68,4.26c-.34,2.37-1.27,4.52-4.26,4.52H-168c-3.25,0-4-2.21-3.64-4.52l1.74-11c.42-2.39,1.3-4.39,4.29-4.39h.7c3.38,0,4,2,3.59,4.26l-.52,3.3h-3.35l.52-3.17c.1-.75-.16-1.12-.75-1.12s-.83.36-1,1.12l-1.74,11c-.1.65.16,1.12.78,1.12s.81-.44.94-1.17Z" transform="translate(171.73 53.88)"/>
    <path d="M-155.22-53.85c3.09,0,4.29,2,3.85,4.91L-153-38.75c-.49,2.94-1.79,4.76-4.26,4.76h-.7c-2.91,0-4.37-1.85-3.87-4.89l1.59-10c.49-3,1.51-4.94,4.32-4.94Zm-1.46,4.65-1.69,10.66c-.08.52.05,1.09.81,1.09s.94-.6,1-1.09l1.69-10.66c.13-.86-.13-1.27-.78-1.27S-156.55-50-156.68-49.2Z" transform="translate(171.73 53.88)"/>
    <path d="M-149.29-53.62h4l-.26,9.83,2.81-9.83h4.11l-3.07,19.34h-3l1.85-11.57-3.48,11.57h-1.3l.13-11.57-1.85,11.57h-2.94Z" transform="translate(171.73 53.88)"/>
    <path d="M-137-34.27h-3.35l3.07-19.34h3.35Z" transform="translate(171.73 53.88)"/>
    <path d="M-129.35-53.62l.73,10,1.59-10h3l-3.07,19.34H-130L-130.86-45l-1.72,10.76h-3l3.07-19.34Z" transform="translate(171.73 53.88)"/>
    <path d="M-122.54-34c-2.05,0-3-1.85-2.68-3.77l1.82-11.54c.34-2.37,1.27-4.52,4.24-4.52h.68c3.3,0,4,2.11,3.59,4.5l-.34,2.08h-3.28l.34-2.11c.1-.81,0-1.22-.73-1.22s-.86.39-1,1.22l-1.69,10.69c-.13.88.1,1.33.75,1.33s1-.39,1.14-1.2l.68-4.19h-1.27l.55-3.25h4.47l-1.85,11.73h-2a7.27,7.27,0,0,0-.29-1.85A3.57,3.57,0,0,1-122.31-34Z" transform="translate(171.73 53.88)"/>
    <path d="M-108.86-34c-2.47,0-4-1.46-3.54-4.16l.55-3.43h3.33l-.49,3.15c-.13.83.05,1.22.68,1.22s.86-.39,1-1.4l.1-.62c.21-1.25,0-1.82-.86-3.17l-1-1.61c-1.25-1.92-1.74-3.35-1.4-5.33l.13-.81c.42-2.57,1.72-3.64,4.08-3.64h.75c2.6,0,3.67,1.27,3.25,4l-.36,2.31h-3.22l.36-2.31c.1-.6,0-1-.65-1s-.7.39-.78.94l-.1.68c-.16,1.09,0,1.38.78,2.63l1.07,1.72c1.33,2.16,2,3.59,1.66,5.49l-.16,1c-.47,2.94-2,4.42-4.45,4.42Z" transform="translate(171.73 53.88)"/>
    <path d="M-95.94-53.85c3.09,0,4.29,2,3.85,4.91l-1.61,10.19C-94.2-35.81-95.5-34-98-34h-.7c-2.91,0-4.37-1.85-3.87-4.89l1.59-10c.49-3,1.51-4.94,4.32-4.94ZM-97.4-49.2l-1.69,10.66c-.08.52.05,1.09.81,1.09s.94-.6,1-1.09l1.69-10.66c.13-.86-.13-1.27-.78-1.27S-97.27-50-97.4-49.2Z" transform="translate(171.73 53.88)"/>
    <path d="M-85.83-53.85c3.09,0,4.29,2,3.85,4.91l-1.61,10.19c-.49,2.94-1.79,4.76-4.26,4.76h-.7c-2.91,0-4.37-1.85-3.87-4.89l1.59-10c.49-3,1.51-4.94,4.32-4.94Zm-1.46,4.65L-89-38.54c-.08.52.05,1.09.81,1.09s.94-.6,1-1.09l1.69-10.66c.13-.86-.13-1.27-.78-1.27S-87.15-50-87.28-49.2Z" transform="translate(171.73 53.88)"/>
    <path d="M-76.75-53.62l.73,10,1.59-10h3l-3.07,19.34h-2.86L-78.26-45-80-34.27h-3l3.07-19.34Z" transform="translate(171.73 53.88)"/>
  </g>
</svg>
