<svg id="Layer_1" data-name="Layer 1" xmlns="http://www.w3.org/2000/svg" viewBox="0 0 69.58 52.72"><title>faq</title><path d="M378.51,355.94l-1.45,8.93h-8.53l-1.16,7.31H374l-1.51,9.16h-6.61l-2.78,17.75H353.8l6.84-43.15Z" transform="translate(-353.8 -355.36)"/><path d="M385.18,392.77h-4.29l-1.57,6.32h-8.24l12.18-43.15h11.48l-.87,43.15h-9Zm.46-8.53.64-13.11L383,384.24Z" transform="translate(-353.8 -355.36)"/><path d="M413.37,355.36c7.66,0,10.9,4.81,9.8,12.18L419.86,388c-1.1,6.73-4.06,10.73-9.16,11.6l2,8.53h-10.5l1.45-8.76c-5-1.16-7.42-5.22-6.5-11.48l3.25-20.3c1.1-7.48,4-12.18,11.31-12.18Zm-3.19,11.19-3.48,22.16c-.17,1.16.12,2.09,1.45,2.09s1.74-.93,1.91-2l3.54-22.21c.23-1.62-.23-2.44-1.45-2.44S410.41,365,410.18,366.55Z" transform="translate(-353.8 -355.36)"/></svg>