<svg id="Layer_1" data-name="Layer 1" xmlns="http://www.w3.org/2000/svg" viewBox="0 0 214.13 26.04">
  <title>featdesigner</title>
  <g>
    <path d="M282.29,431.1l-.85,5.24h-5l-.68,4.28h3.88l-.88,5.37h-3.88l-1.63,10.4H267.8l4-25.29Z" transform="translate(-267.8 -430.76)"/>
    <path d="M294.15,431.1l-.82,5.24h-4.93l-.68,4.32h4l-.85,5.37h-4l-.78,5h5.13l-.85,5.34H279.77l4-25.29Z" transform="translate(-267.8 -430.76)"/>
    <path d="M299.53,452.69H297l-.92,3.71h-4.83l7.14-25.29h6.73l-.51,25.29h-5.27Zm.27-5,.37-7.68-1.9,7.68Z" transform="translate(-267.8 -430.76)"/>
    <path d="M319.07,431.1l-.82,5.24H315.2L312,456.4H306.6l3.16-20.06h-3.09l.85-5.24Z" transform="translate(-267.8 -430.76)"/>
    <path d="M320.54,431.1h5.61l-3,19c-.1.85.14,1.29.75,1.29s.92-.44,1.05-1.29l3-19h5.64l-3,19c-.68,4.25-2.58,6.7-6.56,6.7h-1c-4.18,0-6.15-2.58-5.51-6.7Z" transform="translate(-267.8 -430.76)"/>
    <path d="M336.75,456.4h-5.44l4-25.29h8.16c2.48,0,4.22,1.56,3.77,4.45l-.54,3.33c-.37,2.28-1.43,3.4-2.75,3.84a3.12,3.12,0,0,1,1.63,3.47l-1.29,8.16a3.46,3.46,0,0,0,.07,1.87l0,.17h-5.41a2.82,2.82,0,0,1-.17-1.9l1.12-7.17c.17-.92,0-1.29-.78-1.29h-.71Zm2.41-15.13H340c.65,0,1-.31,1.09-1.22l.54-3.43c.14-.78-.1-1.16-.75-1.16h-.75Z" transform="translate(-267.8 -430.76)"/>
    <path d="M360,431.1l-.82,5.24H354.3l-.68,4.32h4l-.85,5.37h-4l-.78,5h5.13l-.85,5.34H345.66l4-25.29Z" transform="translate(-267.8 -430.76)"/>
    <path d="M361.74,431.1h7.45c3.16,0,5.13,1.67,4.49,5.71l-2.18,13.67c-.65,4-2,5.92-5.3,5.92h-8.47Zm2.18,20.43h.78c.92,0,1.05-.37,1.29-1.56l2-12.75c.14-.92,0-1.43-.75-1.43h-.82Z" transform="translate(-267.8 -430.76)"/>
    <path d="M380.51,431.1H388c3.16,0,5.13,1.67,4.49,5.71l-2.18,13.67c-.65,4-2,5.92-5.3,5.92H376.5Zm2.18,20.43h.78c.92,0,1.05-.37,1.29-1.56l2-12.75c.14-.92,0-1.43-.75-1.43h-.82Z" transform="translate(-267.8 -430.76)"/>
    <path d="M405.43,431.1l-.82,5.24h-4.93l-.68,4.32h4l-.85,5.37h-4l-.78,5h5.13l-.85,5.34H391.05l4-25.29Z" transform="translate(-267.8 -430.76)"/>
    <path d="M409.07,456.74c-3.74,0-5.88-2.11-5.34-5.88l.61-3.81h5.34l-.54,3.5c-.14.92.1,1.39.75,1.39s1-.51,1.12-1.5l.14-.85c.27-1.39,0-2.11-1.09-3.43l-1.63-2.11c-2.07-2.52-2.72-4.62-2.28-7.07l.17-1.05c.54-3.4,2.35-5.17,6.15-5.17h1.22c4.08,0,5.58,2.11,5,5.27l-.44,2.82h-5.2l.41-2.62c.1-.68-.07-1.09-.75-1.09s-.78.37-.88,1.05l-.1.78c-.17,1.09,0,1.56.88,2.75l1.73,2.18c2.28,2.92,3.09,4.83,2.72,7.38l-.2,1.29c-.65,4-2.52,6.15-6.56,6.15Z" transform="translate(-267.8 -430.76)"/>
    <path d="M422.84,456.4H417.4l4-25.29h5.44Z" transform="translate(-267.8 -430.76)"/>
    <path d="M429.4,456.74c-3.06,0-4.52-2.62-4-5.88l2.14-13.67c.54-3.4,1.94-6.43,6.53-6.43H435c4.79,0,6,3.06,5.47,6.19l-.44,2.79h-5.3l.44-2.79c.14-.85,0-1.36-.78-1.36s-1,.41-1.12,1.33l-2.14,13.5c-.14,1,.17,1.53.88,1.53s1.19-.48,1.33-1.39l.78-4.76h-1.56l.75-4.62h6.77l-2.41,15.23h-3.5a11.49,11.49,0,0,0-.34-2.35,5.15,5.15,0,0,1-4.15,2.69Z" transform="translate(-267.8 -430.76)"/>
    <path d="M448.61,431.1l.85,12.44,2-12.44h4.69l-4,25.29h-4.79L446.2,443l-2.14,13.43h-4.73l4-25.29Z" transform="translate(-267.8 -430.76)"/>
    <path d="M468.23,431.1l-.82,5.24h-4.93l-.68,4.32h4l-.85,5.37h-4l-.78,5h5.13l-.85,5.34H453.85l4-25.29Z" transform="translate(-267.8 -430.76)"/>
    <path d="M471.36,456.4h-5.44l4-25.29h8.16c2.48,0,4.22,1.56,3.77,4.45l-.54,3.33c-.37,2.28-1.43,3.4-2.75,3.84a3.12,3.12,0,0,1,1.63,3.47l-1.29,8.16a3.46,3.46,0,0,0,.07,1.87l0,.17h-5.41a2.82,2.82,0,0,1-.17-1.9l1.12-7.17c.17-.92,0-1.29-.78-1.29H473Zm2.41-15.13h.78c.65,0,1-.31,1.09-1.22l.54-3.43c.14-.78-.1-1.16-.75-1.16h-.75Z" transform="translate(-267.8 -430.76)"/>
  </g>
</svg>
