<svg id="Layer_1" data-name="Layer 1" xmlns="http://www.w3.org/2000/svg" viewBox="0 0 176.39 26.01">
  <title>history</title>
  <g>
    <path d="M218.71,200.17H216.2l-.92,3.71h-4.83l7.14-25.29h6.73l-.51,25.29h-5.27Zm.27-5,.37-7.68-1.9,7.68Z" transform="translate(-210.45 -178.24)"/>
    <path d="M233.06,178.58h7.85c2.86,0,4.56,1.46,4,4.76l-.44,2.65c-.37,2.62-1.84,3.67-2.92,3.94,1,.37,2.55,1.46,2.11,4.32l-.58,3.77c-.65,4-1.94,5.85-5,5.85H229Zm3.2,14.14-1.05,6.66h1c.68,0,1-.2,1.16-1.29l.61-4c.14-.92-.07-1.39-.88-1.39Zm1.56-9.83-.85,5.44h.85c.68,0,1-.41,1.09-1.26l.48-3c.14-.85-.17-1.16-.82-1.16Z" transform="translate(-210.45 -178.24)"/>
    <path d="M249.11,203.87h-5.44l4-25.29h8.16c2.48,0,4.22,1.56,3.77,4.45l-.54,3.33c-.37,2.28-1.43,3.4-2.75,3.84a3.12,3.12,0,0,1,1.63,3.47l-1.29,8.16a3.46,3.46,0,0,0,.07,1.87l0,.17h-5.41a2.82,2.82,0,0,1-.17-1.9l1.12-7.17c.17-.92,0-1.29-.78-1.29h-.71Zm2.41-15.13h.78c.65,0,1-.31,1.09-1.22l.54-3.43c.14-.78-.1-1.16-.75-1.16h-.75Z" transform="translate(-210.45 -178.24)"/>
    <path d="M263.46,203.87H258l4-25.29h5.44Z" transform="translate(-210.45 -178.24)"/>
    <path d="M279.61,178.58l-.82,5.24h-4.93l-.68,4.32h4l-.85,5.37h-4l-.78,5h5.13l-.85,5.34H265.22l4-25.29Z" transform="translate(-210.45 -178.24)"/>
    <path d="M291.78,178.58l-.85,5.24h-5l-.68,4.28h3.88l-.88,5.37h-3.88l-1.63,10.4h-5.44l4-25.29Z" transform="translate(-210.45 -178.24)"/>
    <path d="M298.92,203.87h-5.44l4-25.29h5.44l-1.46,9.18h1.94l1.46-9.18h5.44l-4,25.29h-5.44l1.6-10.2h-1.94Z" transform="translate(-210.45 -178.24)"/>
    <path d="M313.5,203.87h-5.44l4-25.29h5.44Z" transform="translate(-210.45 -178.24)"/>
    <path d="M321.22,204.21c-3.74,0-5.88-2.11-5.34-5.88l.61-3.81h5.34l-.54,3.5c-.14.92.1,1.39.75,1.39s1-.51,1.12-1.5l.14-.85c.27-1.39,0-2.11-1.09-3.43l-1.63-2.11c-2.07-2.52-2.72-4.62-2.28-7.07l.17-1.05c.54-3.4,2.35-5.17,6.15-5.17h1.22c4.08,0,5.58,2.11,5,5.27l-.44,2.82h-5.2l.41-2.62c.1-.68-.07-1.09-.75-1.09s-.78.37-.88,1.05l-.1.78c-.17,1.09,0,1.56.88,2.75l1.73,2.18c2.28,2.92,3.09,4.83,2.72,7.38l-.2,1.29c-.65,4-2.52,6.15-6.56,6.15Z" transform="translate(-210.45 -178.24)"/>
    <path d="M344.51,178.58l-.82,5.24h-3.06l-3.16,20.06H332l3.16-20.06H332.1l.85-5.24Z" transform="translate(-210.45 -178.24)"/>
    <path d="M352.3,178.24c4.49,0,6.39,2.82,5.75,7.14l-1.9,12c-.71,4.39-2.79,6.9-6.56,6.9h-1c-4.32,0-6.43-2.55-5.75-7.07l1.87-11.8c.65-4.39,2.35-7.14,6.63-7.14Zm-1.87,6.56-2,13c-.1.68.07,1.22.85,1.22s1-.54,1.12-1.19l2.07-13c.14-1-.14-1.43-.85-1.43S350.6,183.85,350.43,184.8Z" transform="translate(-210.45 -178.24)"/>
    <path d="M362.22,203.87h-5.44l4-25.29H369c2.48,0,4.22,1.56,3.77,4.45l-.54,3.33c-.37,2.28-1.43,3.4-2.75,3.84a3.12,3.12,0,0,1,1.63,3.47l-1.29,8.16a3.46,3.46,0,0,0,.07,1.87l0,.17H364.4a2.82,2.82,0,0,1-.17-1.9l1.12-7.17c.17-.92,0-1.29-.78-1.29h-.71Zm2.41-15.13h.78c.65,0,1-.31,1.09-1.22l.54-3.43c.14-.78-.1-1.16-.75-1.16h-.75Z" transform="translate(-210.45 -178.24)"/>
    <path d="M380.72,194.18l-1.5,9.69h-5.47l1.53-9.62-1.46-15.67h5.3l0,8.4,2.65-8.4h5Z" transform="translate(-210.45 -178.24)"/>
  </g>
</svg>
